<?xml version="1.0" encoding="utf-8"?>
<!-- Generator: Adobe Illustrator 19.2.0, SVG Export Plug-In . SVG Version: 6.00 Build 0)  -->
<svg version="1.1" id="Layer_1" xmlns="http://www.w3.org/2000/svg" xmlns:xlink="http://www.w3.org/1999/xlink" x="0px" y="0px"
	 viewBox="0 0 18 18" style="enable-background:new 0 0 18 18;" xml:space="preserve">
<style type="text/css">
	.st0{clip-path:url(#SVGID_2_);}
	.st1{clip-path:url(#SVGID_4_);fill:#53A3CF;}
</style>
<g>
	<defs>
		<path id="SVGID_1_" d="M10,9v4c0,0.6-0.4,1-1,1s-1-0.4-1-1v-3c-0.6,0-1-0.4-1-1c0-0.6,0.4-1,1-1h1C9.6,8,10,8.4,10,9 M9,4
			C8.4,4,8,4.4,8,5v1c0,0.6,0.4,1,1,1s1-0.4,1-1V5C10,4.4,9.6,4,9,4 M17,9c0,4.4-3.6,8-8,8s-8-3.6-8-8s3.6-8,8-8S17,4.6,17,9 M15,9
			c0-3.3-2.7-6-6-6S3,5.7,3,9s2.7,6,6,6S15,12.3,15,9"/>
	</defs>
	<clipPath id="SVGID_2_">
		<use xlink:href="#SVGID_1_"  style="overflow:visible;"/>
	</clipPath>
	<g class="st0">
		<defs>
			<rect id="SVGID_3_" x="-821" y="-559" width="1200" height="1024"/>
		</defs>
		<clipPath id="SVGID_4_">
			<use xlink:href="#SVGID_3_"  style="overflow:visible;"/>
		</clipPath>
		<rect x="-4" y="-4" class="st1" width="26" height="26"/>
	</g>
</g>
</svg>
