<?xml version="1.0" encoding="utf-8"?>
<!-- Generator: Adobe Illustrator 19.2.0, SVG Export Plug-In . SVG Version: 6.00 Build 0)  -->
<svg version="1.1" id="Layer_1" xmlns="http://www.w3.org/2000/svg" xmlns:xlink="http://www.w3.org/1999/xlink" x="0px" y="0px"
	 viewBox="0 0 18 18" style="enable-background:new 0 0 18 18;" xml:space="preserve">
<style type="text/css">
	.st0{clip-path:url(#SVGID_2_);enable-background:new    ;}
	.st1{clip-path:url(#SVGID_4_);}
	.st2{clip-path:url(#SVGID_6_);}
	.st3{clip-path:url(#SVGID_8_);fill:#9B9A9A;}
	.st4{clip-path:url(#SVGID_10_);}
	.st5{clip-path:url(#SVGID_12_);fill:#9B9B9B;}
</style>
<g>
	<g>
		<g>
			<defs>
				<rect id="SVGID_1_" x="-436.9" y="-317.3" width="646.2" height="551.4"/>
			</defs>
			<clipPath id="SVGID_2_">
				<use xlink:href="#SVGID_1_"  style="overflow:visible;"/>
			</clipPath>
			<g class="st0">
				<g>
					<defs>
						<rect id="SVGID_3_" x="2" y="4.7" width="14" height="8.6"/>
					</defs>
					<clipPath id="SVGID_4_">
						<use xlink:href="#SVGID_3_"  style="overflow:visible;"/>
					</clipPath>
					<g class="st1">
						<defs>
							<path id="SVGID_5_" d="M9,13.3c-3.1,0-5.7-1.5-6.9-4.1L2,9l0.1-0.2C3.3,6.2,5.9,4.7,9,4.7c3.1,0,5.7,1.5,6.9,4.1L16,9
								l-0.1,0.2C14.7,11.8,12.1,13.3,9,13.3 M3.2,9c1,2,3.2,3.2,5.8,3.2c2.6,0,4.8-1.2,5.8-3.2c-1-2-3.2-3.2-5.8-3.2
								C6.4,5.8,4.2,7,3.2,9"/>
						</defs>
						<use xlink:href="#SVGID_5_"  style="overflow:visible;fill-rule:evenodd;clip-rule:evenodd;fill:#9B9A9A;"/>
						<clipPath id="SVGID_6_">
							<use xlink:href="#SVGID_5_"  style="overflow:visible;"/>
						</clipPath>
						<g class="st2">
							<defs>
								<rect id="SVGID_7_" x="2" y="4.7" width="14" height="8.6"/>
							</defs>
							<use xlink:href="#SVGID_7_"  style="overflow:visible;fill:#9B9A9A;"/>
							<clipPath id="SVGID_8_">
								<use xlink:href="#SVGID_7_"  style="overflow:visible;"/>
							</clipPath>
							<rect x="-0.7" y="2" class="st3" width="19.4" height="14"/>
						</g>
					</g>
				</g>
			</g>
		</g>
	</g>
	<g>
		<defs>
			<path id="SVGID_9_" d="M9,11.2c-1.2,0-2.2-1-2.2-2.2s1-2.2,2.2-2.2s2.2,1,2.2,2.2S10.2,11.2,9,11.2 M9,7.9C8.4,7.9,7.9,8.4,7.9,9
				c0,0.6,0.5,1.1,1.1,1.1c0.6,0,1.1-0.5,1.1-1.1C10.1,8.4,9.6,7.9,9,7.9"/>
		</defs>
		<use xlink:href="#SVGID_9_"  style="overflow:visible;fill-rule:evenodd;clip-rule:evenodd;fill:#9B9B9B;"/>
		<clipPath id="SVGID_10_">
			<use xlink:href="#SVGID_9_"  style="overflow:visible;"/>
		</clipPath>
		<g class="st4">
			<defs>
				<rect id="SVGID_11_" x="-436.9" y="-317.3" width="646.2" height="551.4"/>
			</defs>
			<use xlink:href="#SVGID_11_"  style="overflow:visible;fill:#9B9B9B;"/>
			<clipPath id="SVGID_12_">
				<use xlink:href="#SVGID_11_"  style="overflow:visible;"/>
			</clipPath>
			<rect x="4.2" y="4.2" class="st5" width="9.7" height="9.7"/>
		</g>
	</g>
</g>
</svg>
