<?xml version="1.0" encoding="utf-8"?>
<!-- Generator: Adobe Illustrator 19.2.0, SVG Export Plug-In . SVG Version: 6.00 Build 0)  -->
<svg version="1.1" id="Layer_1" xmlns="http://www.w3.org/2000/svg" xmlns:xlink="http://www.w3.org/1999/xlink" x="0px" y="0px"
	 viewBox="0 0 18 18" style="enable-background:new 0 0 18 18;" xml:space="preserve">
<style type="text/css">
	.st0{clip-path:url(#SVGID_2_);}
	.st1{clip-path:url(#SVGID_4_);fill:#9B9B9B;}
</style>
<g>
	<defs>
		<path id="SVGID_1_" d="M10.4,9l5.3-5.3c0.4-0.4,0.4-1,0-1.4s-1-0.4-1.4,0L9,7.6L3.7,2.3c-0.4-0.4-1-0.4-1.4,0s-0.4,1,0,1.4L7.6,9
			l-5.3,5.3c-0.4,0.4-0.4,1,0,1.4C2.5,15.9,2.7,16,3,16s0.5-0.1,0.7-0.3L9,10.4l5.3,5.3c0.2,0.2,0.5,0.3,0.7,0.3
			c0.3,0,0.5-0.1,0.7-0.3c0.4-0.4,0.4-1,0-1.4L10.4,9"/>
	</defs>
	<clipPath id="SVGID_2_">
		<use xlink:href="#SVGID_1_"  style="overflow:visible;"/>
	</clipPath>
	<g class="st0">
		<defs>
			<rect id="SVGID_3_" x="-836" y="-269.5" width="1200" height="1024"/>
		</defs>
		<clipPath id="SVGID_4_">
			<use xlink:href="#SVGID_3_"  style="overflow:visible;"/>
		</clipPath>
		<rect x="-3" y="-3" class="st1" width="24" height="24"/>
	</g>
</g>
</svg>
