<?xml version="1.0" encoding="utf-8"?>
<!-- Generator: Adobe Illustrator 18.1.0, SVG Export Plug-In . SVG Version: 6.00 Build 0)  -->
<!DOCTYPE svg PUBLIC "-//W3C//DTD SVG 1.1//EN" "http://www.w3.org/Graphics/SVG/1.1/DTD/svg11.dtd">
<svg version="1.1" id="Layer_1" xmlns="http://www.w3.org/2000/svg" xmlns:xlink="http://www.w3.org/1999/xlink" x="0px" y="0px"
	 viewBox="0 0 635.8 156.6" style="enable-background:new 0 0 635.8 156.6;" xml:space="preserve">
<style type="text/css">
	.st0{fill:#D8D1C6;}
</style>
<path class="st0" d="M511,92.9c-1.2,0.7-2.3,1.4-3.2,1.9c-12.4,6.3-17.5,4.3-15.2-1.2c0.2-0.4,22.5-41.3,23.3-42.8
	c0.7-1.4-0.2-2.4-1.5-2.2c-1.1,0.1-9.7,1.1-11.1,1.4c-1.2,0.2-1.8,0.9-2.2,1.7c-0.4,0.7-12.6,23.2-17.2,31.9
	c-13.9,9.8-27.9,17.2-39.6,16c-12.6-1.3-11.3-12.7-7.4-21.3c3.6-8,10.9-13.6,13.5-15.7c2.4-1.9,6.8-4.6,9.5-4.6c3.5,0,4,2.8,3.3,4.6
	c-0.7,1.9-4.6,7.9-6,9.9c-0.2,0.4-0.6,1.5,0.9,1.5c5-0.3,10.3-1.4,12.8-2.4c0.8-0.3,1.3-0.8,1.5-1.1c4.7-5.2,5.4-12,5.2-13.1
	c-0.2-2.5-1.6-5.8-6.2-7.8l0,0c-1.9-0.7-5.4-1.2-8.2-1.2c-25,0-40.3,26.7-40.3,26.7c-3.1,5.5-4.8,10.3-5.4,14.5
	c-2.6,1.7-5.3,3.5-7.5,4.6c-12.4,6.3-17.1,4.8-14.8-0.7c0.2-0.4,22.5-41.3,23.3-42.8c0.7-1.4-0.2-2.4-1.5-2.2
	c-1.1,0.1-9.7,1.1-11.1,1.4c-1.2,0.2-1.8,0.9-2.2,1.7c-0.5,0.8-15.4,28.5-18.4,34.3c-5.2,3.1-12.7,6.9-16.5,8.5
	c-1.7,0.7-11.2,3.9-6-5.2c6.4-11.9,21.8-39.9,33.5-60.9l63.2-3.7c2-0.1,2.6,1.1,1.4,2.7l-6.3,8.2c-1.2,1.6-0.6,2.8,1.4,2.6l89.4-8.3
	C533.6,51.1,517.9,80.2,511,92.9 M55.1,69.9c1.4-1.7,5.1-5.2,8-7.1c2.5-1.6,7-3.9,10.6-3.7c2.9,0.2,5.2,2.8,3.7,6.1
	c-1.4,3.1-7.4,6.6-14.1,9.7c-4.9,2.3-10.3,4-14.6,5.4C49.9,76.8,53.5,71.8,55.1,69.9 M249.2,68c2.5-2.8,11-9.5,16.7-8.6
	c4.2,0.6,4.2,3.9,3,6.3c-1.1,2.2-3.8,4.8-10,8.2c-6.8,3.7-12.6,5.5-18.1,7.1C243.3,74.7,246.6,70.9,249.2,68 M632.7,18l-67.2,3.3
	c6-10.8,10.3-18.6,10.5-19c0.8-1.4,0-2.6-1.6-2.3c-1,0.2-13.1,3.1-13.7,3.3c-0.6,0.2-1.6,0.5-2.3,1.8c-0.2,0.3-3.9,7.2-9.2,17
	l-68.5,3.4c-2,0.1-2.6-1.1-1.4-2.7l6.7-8.5c1.3-1.6,0.6-2.7-1.4-2.5l-84.5,9.2c5.9-10.6,10.1-18.2,10.3-18.6c0.8-1.4,0-2.6-1.6-2.3
	c-1,0.2-13.1,3.1-13.7,3.3c-0.6,0.2-1.6,0.5-2.3,1.8c-0.2,0.4-4,7.5-9.5,17.7l-51.9,5.6c-2,0.2-2.9,1-2.9,2.1c0,1,0.8,1.8,2.8,1.7
	l48.4-2.8c-9.9,18.3-23.1,42.8-31,57.4c-17.5,11.3-21.4,10.5-21.4,10.5c-18.8,1.7,16.7-32.4,16.7-32.4c4.2-8.5-0.2-11.2-0.2-11.2
	c-23.5,4.4-28.8-1.7-28.8-1.7c0,0.1,0,0.2-0.1,0.3c0.7-2.9,0.9-5.9,0.1-8.5c0,0-1.4-5.7-9.4-4.9c0,0-7.7,0.7-8.5,8.9
	c0,0-0.9,5.2,4.4,12.1c-7.6,17.6-22.2,28.5-27.9,31.8c-5.5,3.2-11.9,5.6-15.8,6.4c-4.3,0.9-20.1,4.1-18.2-9.8
	c4-0.8,19.2-5.3,25.7-8.3c5.8-2.6,12.3-6.1,16.5-11.7c3.5-4.7,5.9-14.1-3.8-18.5c-7.9-3.5-23.8,0.1-34.6,7.9
	c-11.1,8.1-15.7,15-18.7,23c-0.5,1.4-1,2.9-1.3,4.3c-3.8,0.9-8.2,2-13.1,3.3c1.7-2.2,8.3-13.1,9.1-23c0.7-9.6-5.3-16.4-15.9-16.8
	c-17,0-29.1,15-29.1,15s6.2-9.7-3.3-14.6c-0.7-0.4-1.5-0.1-2.2,1c0,0-10.5,19.2-22.6,41.1c-5,2.6-22,10.7-24.2,3.6
	c-1.3-4.1-2-8.4-2.3-10.8c8.7-6.3,35.8-33.6,35.8-33.6c1.3-1.4-0.6-1.4-0.7-1.4l-1.8,0c-0.1,0-0.1,0-0.2,0c-2.6,0-8.4,0-9.6,0
	c-1.2,0.1-2.3,0.4-3.2,1.4c-1.4,1.6-11.7,13.5-21.7,22.2c-1-10-2-21.4-2.1-22c-0.2-1.3-0.4-1.8-1.9-1.8c-1,0-10.9,0.4-11.8,0.5
	c-0.9,0.1-1.6,0.6-1.4,2c0.1,1,2.5,19.2,4.1,31.2c-6.8,4.7-11,7-16.1,9.5c-3.9,2-19.2,7.1-29.6,7c-7.7-0.1-14.5-3.9-13.4-10.2
	c3.8-1,14.4-3.8,22.1-7.1c7.2-3.1,19.4-9.3,22-17.1c2.5-7.6-2.1-12.4-5.8-14.1c-3.4-1.6-13.2-3.5-26.5,2.5
	c-13.3,5.9-20.1,14.7-22.9,18.8c-3.1,4.4-5.2,9.6-6.2,13.3c-10,1.9-23.9,3.4-25,3.5c-4.8,0.5-4.8,0.6-3.2,2.4c3.2,3.6,5.6,7,8.3,6.6
	c0,0,9.5-2,20.3-4.6c0.7,5.5,3.4,9.4,5.8,11.5c5.4,4.9,15.5,8.2,28.6,6.1c18.2-2.8,34.3-12.5,42.9-18c0.5,4.1,1.9,11.1,2.2,12.5
	c1.1,5.8,8.1,5.6,8.1,5.6c7,0.2,17.2-4.8,22.9-7.8c-13.9,25.3-27.6,50.4-28.1,51.3c-1.2,2.4,0.1,2.8,1.9,2.5c1.8-0.3,11-2.4,12.5-3
	c1.5-0.6,2.2-0.9,3.4-3.1c0.9-1.7,23.1-42.8,33.2-61.7c0,0,5.3-9.7,15-18.6c6.4-5.9,15.2-12.2,22.5-10.6c1.1,0.3,5.3,1.8,3.8,8l0,0
	c0,0-3.3,15.7-17.2,25.5c-5,1.3-10.3,2.6-14.8,4.5c-6.7,2.8-10.5,6.7-10.1,10.2c0.4,3.9,5.3,4.8,12.7,3.9c6.1-0.8,13.3-3.7,18.6-7.1
	c3.6-2.3,6.9-4.5,8-5.5c9.4-2.9,16.2-4.9,21.1-6.3c0.2,3.8,1.3,7.4,3.7,10.7c4.3,6,12.6,7.8,20.9,7.5c13.3-0.4,21.1-5.2,27.6-9
	c7.8-4.5,24.6-19.8,34.9-37.2c3,1.3,5.4,2.4,14,2.3c0,0,0,0,0,0c-3.3,3.6-14.6,17.4-18.6,31.6c-4,14.6,14.1,12.6,23.3,8.9
	c3.2-1.3,7.7-3.4,12.4-6c-5.4,10.7,8.4,9.1,15.2,7.4c9.7-2.5,17.7-6.3,22.9-9.1c-0.1,0.5-2.5,7.3,1.8,9.6c2.9,1.6,8.8,0.5,10.9,0.1
	c3.1-0.6,9.3-2.5,13.4-4c3.3-1.2,6.9-2.7,13.2-5.8c3.2,7.8,12.3,11.3,22.7,11.3c8.4,0,18.8-2.9,31.2-9.9c1.8-1,3.5-2.1,5-3.1
	c-0.5,1.2-0.8,2.2-1,3c-0.7,3.3-0.4,6.9,2.2,8.4c2.9,1.6,8.8,0.5,10.9,0.1c3.1-0.6,9.3-2.5,13.3-4c0.9-0.3,1.8-0.7,2.8-1.1
	c-1.6,7.5,10.2,6.1,16.3,4.5c10.1-2.6,18.3-6.6,23.5-9.4c-0.2,0.6-0.4,1.1-0.5,1.6c-0.7,3.3-0.4,6.9,2.2,8.4
	c2.9,1.6,8.8,0.5,10.9,0.1c3.1-0.6,9.3-2.5,13.4-4c2-0.8,4.2-1.6,7-2.9c-13.8,25.1-27.8,50.3-28.4,51.6c-1.2,2.4,0.1,2.8,1.9,2.5
	c1.8-0.3,11.1-2.4,12.6-3c1.5-0.6,2.2-0.9,3.4-3.1c0,0,52.3-97.1,53.2-98.9c0.9-1.9,0.1-2.9-2-2.7c-1.9,0.2-9.3,1.3-10.4,1.6
	c-1.1,0.3-1.8,0.6-2.5,1.8c-1.6,3-10.3,18.6-20.3,36.8c-3.2,2.1-6.6,4.5-9.2,5.8c-12.4,6.3-17.5,4.3-15.2-1.2
	c0.2-0.4,22.5-41.3,23.3-42.8c0.7-1.4-0.2-2.4-1.5-2.2c-1.1,0.1-9.7,1.1-11.1,1.4c-1.2,0.2-1.8,0.9-2.2,1.7
	c-0.5,0.8-14.8,27.2-18.2,33.8c-5.2,3.2-13.2,7.3-17.2,8.9c-1.7,0.7-11.2,3.9-6-5.2c6.4-11.9,21.9-39.9,33.5-60.9l71-6.6
	c2-0.2,3.1-0.8,3.1-2.1C635.7,18.4,634.7,17.9,632.7,18"/>
</svg>
