<?xml version="1.0" encoding="UTF-8" standalone="no"?>
<svg width="13px" height="13px" viewBox="0 0 13 13" version="1.1" xmlns="http://www.w3.org/2000/svg" xmlns:xlink="http://www.w3.org/1999/xlink" xmlns:sketch="http://www.bohemiancoding.com/sketch/ns">
    <!-- Generator: Sketch 3.4.2 (15857) - http://www.bohemiancoding.com/sketch -->
    <title>Fill 1</title>
    <desc>Created with Sketch.</desc>
    <defs></defs>
    <g id="Sign-on/up-v3" stroke="none" stroke-width="1" fill="none" fill-rule="evenodd" sketch:type="MSPage">
        <g id="Sign-in" sketch:type="MSArtboardGroup" transform="translate(-87.000000, -511.000000)" fill="#3B5998">
            <g id="Sign-in-with-Facebook-Copy" sketch:type="MSLayerGroup" transform="translate(15.000000, 496.000000)">
                <path d="M81.88,27.1597273 L80.3601818,27.1597273 L80.3601818,22.3461818 L81.9674545,22.3461818 L82.2038182,20.5734545 L80.3601818,20.5734545 L80.3601818,19.4412727 C80.3601818,18.9106364 80.5811818,18.5549091 81.3410909,18.5549091 L82.387,18.5466364 L82.387,16.9074545 C82.1329091,16.8838182 81.6270909,16.8365455 80.9617273,16.8365455 C79.5600909,16.8365455 78.5862727,17.691 78.5862727,19.2592727 L78.5862727,20.5734545 L76.8135455,20.5734545 L76.8135455,22.3461818 L78.5862727,22.3461818 L78.5862727,27.1597273 L74.2797273,27.1597273 C73.0210909,27.1597273 72,26.1386364 72,24.88 L72,17.2797273 C72,16.0210909 73.0210909,15 74.2797273,15 L81.88,15 C83.1386364,15 84.1597273,16.0210909 84.1597273,17.2797273 L84.1597273,24.88 C84.1597273,26.1386364 83.1386364,27.1597273 81.88,27.1597273" id="Fill-1" sketch:type="MSShapeGroup"></path>
            </g>
        </g>
    </g>
</svg>