<?xml version="1.0" encoding="UTF-8" standalone="no"?>
<svg width="12px" height="12px" viewBox="0 0 12 12" version="1.1" xmlns="http://www.w3.org/2000/svg" xmlns:xlink="http://www.w3.org/1999/xlink" xmlns:sketch="http://www.bohemiancoding.com/sketch/ns">
    <!-- Generator: Sketch 3.4.2 (15855) - http://www.bohemiancoding.com/sketch -->
    <title>Instagram!</title>
    <desc>Created with Sketch.</desc>
    <defs></defs>
    <g id="Sign-on/up-v3" stroke="none" stroke-width="1" fill="none" fill-rule="evenodd" sketch:type="MSPage">
        <g id="Sign-in---Email-Error" sketch:type="MSArtboardGroup" transform="translate(-87.000000, -525.000000)" fill="#3B5998">
            <g id="Sign-in-with-Facebook-Copy" sketch:type="MSLayerGroup" transform="translate(15.000000, 496.000000)">
                <g id="Instagram!" transform="translate(72.000000, 29.000000)" sketch:type="MSShapeGroup">
                    <path d="M0.0164290113,10.6975955 L0.0164290113,1.16039604 C0.0249155743,1.14002829 0.0362309915,1.12022631 0.0413229293,1.09929279 C0.175410624,0.536350778 0.524491246,0.182743989 1.08120978,0.0311173975 C1.11345871,0.0226308345 1.14457611,0.0101838755 1.17625928,0 L10.7372211,0 C10.7609835,0.0090523338 10.7847458,0.0203677511 10.8096398,0.0265912306 C11.3216624,0.152192362 11.6662168,0.461669024 11.8359481,0.962376238 C11.8602763,1.03479491 11.8772494,1.10947666 11.8976171,1.18359264 L11.8976171,10.6975955 C11.8885648,10.7270156 11.8783809,10.7558699 11.8715917,10.78529 C11.7488194,11.3018388 11.4382112,11.6486563 10.9346751,11.8200849 C10.8622565,11.844413 10.7875747,11.8608204 10.7140245,11.8811881 L1.19945589,11.8811881 C1.17795659,11.8732673 1.15758884,11.8630835 1.13552378,11.8585573 C0.604264938,11.7454031 0.254052774,11.429703 0.0775322645,10.9182461 C0.0526383465,10.8463932 0.0362309915,10.7711457 0.0164290113,10.6975955 L0.0164290113,10.6975955 Z M1.35886115,5.03592645 L1.35886115,5.14229137 C1.35886115,6.76605375 1.35830688,8.3903819 1.35886115,10.0141443 C1.35941542,10.3247525 1.54842011,10.5103253 1.86324317,10.5103253 C4.51152589,10.5108911 7.15925435,10.5108911 9.80753707,10.5103253 C10.1323369,10.5103253 10.3130276,10.3241867 10.3130276,9.99207921 C10.3135819,8.38359264 10.3130276,6.77510608 10.3130276,5.16605375 L10.3130276,5.03762376 L9.30925198,5.03762376 C9.56199725,6.16237624 9.38186082,7.19886846 8.70842768,8.11994342 C8.03499455,9.04101839 7.11990146,9.53437058 5.99529585,9.59151344 C5.05914065,9.63903819 4.2166564,9.35275813 3.51384717,8.72022631 C2.41806339,7.73465347 2.06056185,6.48882603 2.35653986,5.03592645 L1.35886115,5.03592645 L1.35886115,5.03592645 Z M3.60197546,5.94115983 C3.60252973,7.20339463 4.59355725,8.21725601 5.83067886,8.22121641 C7.07112606,8.22461103 8.07046757,7.20678925 8.06991331,5.94002829 C8.06991331,4.67779349 7.07833152,3.66336634 5.84120991,3.65997171 C4.60020844,3.65714286 3.60142119,4.67439887 3.60197546,5.94115983 L3.60197546,5.94115983 Z M9.18897627,3.65148515 C9.40513999,3.65148515 9.62074944,3.65318246 9.8363589,3.65091938 C10.1290113,3.64809052 10.3119191,3.46308345 10.3130276,3.16661952 C10.3146904,2.72984441 10.3146904,2.29363508 10.3130276,1.85685997 C10.3113648,1.56944837 10.12624,1.37312588 9.84578142,1.37029703 C9.41068265,1.36633663 8.97558387,1.36577086 8.53993084,1.37029703 C8.26279786,1.37312588 8.08099863,1.56322489 8.07933583,1.84780764 C8.0765645,2.29193777 8.0765645,2.73606789 8.07933583,3.18019802 C8.08155289,3.46930693 8.25836373,3.64695898 8.5421479,3.65091938 C8.75775735,3.65374823 8.97336681,3.65148515 9.18897627,3.65148515 L9.18897627,3.65148515 Z" id="Fill-1"></path>
                </g>
            </g>
        </g>
    </g>
</svg>