<?xml version="1.0" encoding="UTF-8" standalone="no"?>
<svg width="22px" height="21px" viewBox="0 0 22 21" version="1.1" xmlns="http://www.w3.org/2000/svg" xmlns:xlink="http://www.w3.org/1999/xlink" xmlns:sketch="http://www.bohemiancoding.com/sketch/ns">
    <!-- Generator: Sketch 3.3.2 (12043) - http://www.bohemiancoding.com/sketch -->
    <title>Fill 1</title>
    <desc>Created with Sketch.</desc>
    <defs></defs>
    <g id="Page-1" stroke="none" stroke-width="1" fill="none" fill-rule="evenodd" sketch:type="MSPage">
        <g id="Components---Footer" sketch:type="MSArtboardGroup" transform="translate(-1079.000000, -485.000000)" fill="#A39E93">
            <g id="Footer-:-Labeled" sketch:type="MSLayerGroup" transform="translate(296.000000, 429.000000)">
                <g id="labeled-footer" transform="translate(0.000000, 0.000000)" sketch:type="MSShapeGroup">
                    <path d="M783.244,74.908 L783.244,58.051 C783.259,58.015 783.279,57.98 783.288,57.943 C783.525,56.948 784.142,56.323 785.126,56.055 C785.183,56.04 785.238,56.018 785.294,56 L802.193,56 C802.235,56.016 802.277,56.036 802.321,56.047 C803.226,56.269 803.835,56.816 804.135,57.701 C804.178,57.829 804.208,57.961 804.244,58.092 L804.244,74.908 C804.228,74.96 804.21,75.011 804.198,75.063 C803.981,75.976 803.432,76.589 802.542,76.892 C802.414,76.935 802.282,76.964 802.152,77 L785.335,77 C785.297,76.986 785.261,76.968 785.222,76.96 C784.283,76.76 783.664,76.202 783.352,75.298 C783.308,75.171 783.279,75.038 783.244,74.908 L783.244,74.908 Z M785.666,64.901 L785.666,65.089 C785.666,67.959 785.665,70.83 785.666,73.7 C785.667,74.249 786.008,74.577 786.576,74.577 C791.354,74.578 796.131,74.578 800.909,74.577 C801.495,74.577 801.821,74.248 801.821,73.661 C801.822,70.818 801.821,67.975 801.821,65.131 L801.821,64.904 L800.01,64.904 C800.466,66.892 800.141,68.724 798.926,70.352 C797.711,71.98 796.06,72.852 794.031,72.953 C792.342,73.037 790.822,72.531 789.554,71.413 C787.577,69.671 786.932,67.469 787.466,64.901 L785.666,64.901 L785.666,64.901 Z M789.713,66.501 C789.714,68.732 791.502,70.524 793.734,70.531 C795.972,70.537 797.775,68.738 797.774,66.499 C797.774,64.268 795.985,62.475 793.753,62.469 C791.514,62.464 789.712,64.262 789.713,66.501 L789.713,66.501 Z M799.793,62.454 C800.183,62.454 800.572,62.457 800.961,62.453 C801.489,62.448 801.819,62.121 801.821,61.597 C801.824,60.825 801.824,60.054 801.821,59.282 C801.818,58.774 801.484,58.427 800.978,58.422 C800.193,58.415 799.408,58.414 798.622,58.422 C798.122,58.427 797.794,58.763 797.791,59.266 C797.786,60.051 797.786,60.836 797.791,61.621 C797.795,62.132 798.114,62.446 798.626,62.453 C799.015,62.458 799.404,62.454 799.793,62.454 L799.793,62.454 Z" id="Fill-1"></path>
                </g>
            </g>
        </g>
    </g>
</svg>