<?xml version="1.0" encoding="utf-8"?>
<!-- Generator: Adobe Illustrator 18.1.1, SVG Export Plug-In . SVG Version: 6.00 Build 0)  -->
<svg version="1.1" id="Layer_1" xmlns="http://www.w3.org/2000/svg" xmlns:xlink="http://www.w3.org/1999/xlink" x="0px" y="0px"
	 viewBox="0 0 24.4 24.4" enable-background="new 0 0 24.4 24.4" xml:space="preserve">
<g>
	<g>
		<path d="M14.2,20.4h-4c-3.2,0-3.4-2-3.4-2.6c0-0.4,0-0.7,0-0.9c-2.1-1.1-3.2-3.1-3.2-5.5c0-4.4,3.8-8.2,8.2-8.2h0.8
			c4.4,0,8.2,3.8,8.2,8.2c0,2.4-1.1,4.4-3.2,5.5v0.9C17.6,18.4,17.4,20.4,14.2,20.4z M12,18.4h0.4V17c0-0.6,0.4-1,1-1s1,0.4,1,1v1.4
			c1.2,0,1.2-0.4,1.2-0.6v-1.5c0-0.4,0.2-0.8,0.6-0.9c1.7-0.8,2.6-2.1,2.6-3.9c0-3.3-2.9-6.2-6.2-6.2h-0.8c-3.4,0-6.2,2.8-6.2,6.2
			c0,1.9,0.9,3.2,2.6,4c0.4,0.2,0.6,0.5,0.6,0.9c0,0.2,0,0.6,0,1.5c0,0.2,0,0.6,1.2,0.6V17c0-0.6,0.4-1,1-1s1,0.4,1,1V18.4z"/>
	</g>
	<g>
		<g>
			<defs>
				<path id="SVGID_1_" d="M9.4,9.8c-1.2,0-1.6,0.5-1.6,1.6S8.2,13,9.4,13s1.6-0.5,1.6-1.6S10.6,9.8,9.4,9.8"/>
			</defs>
			<use xlink:href="#SVGID_1_"  overflow="visible" fill-rule="evenodd" clip-rule="evenodd"/>
			<clipPath id="SVGID_2_">
				<use xlink:href="#SVGID_1_"  overflow="visible"/>
			</clipPath>
		</g>
	</g>
	<g>
		<g>
			<defs>
				<path id="SVGID_3_" d="M15,9.8c-1.2,0-1.6,0.5-1.6,1.6S13.8,13,15,13s1.6-0.5,1.6-1.6S16.2,9.8,15,9.8"/>
			</defs>
			<use xlink:href="#SVGID_3_"  overflow="visible" fill-rule="evenodd" clip-rule="evenodd"/>
			<clipPath id="SVGID_4_">
				<use xlink:href="#SVGID_3_"  overflow="visible"/>
			</clipPath>
			<polyline clip-path="url(#SVGID_4_)" points="8.4,18 8.4,4.8 21.6,4.8 			"/>
		</g>
	</g>
	<g>
		<path d="M4.6,22.8c-0.3,0-0.5-0.1-0.7-0.3l-1.6-1.6c-0.4-0.4-0.4-1,0-1.4c0.4-0.4,1-0.4,1.4,0l0.1,0.1c0,0,0.1-0.1,0.1-0.1
			l0.8-0.8c0.4-0.4,1-0.4,1.4,0c0.4,0.4,0.4,1,0,1.4l-0.8,0.8c0,0-0.1,0.1-0.1,0.1l0.1,0.1c0.4,0.4,0.4,1,0,1.4
			C5.1,22.7,4.9,22.8,4.6,22.8z M19.8,22.8c-0.3,0-0.5-0.1-0.7-0.3c-0.4-0.4-0.4-1,0-1.4l0.1-0.1c0,0-0.1-0.1-0.1-0.1l-0.8-0.8
			c-0.4-0.4-0.4-1,0-1.4s1-0.4,1.4,0l0.8,0.8c0,0,0.1,0.1,0.1,0.1l0.1-0.1c0.4-0.4,1-0.4,1.4,0s0.4,1,0,1.4l-1.6,1.6
			C20.3,22.7,20.1,22.8,19.8,22.8z M4.6,6C4.4,6,4.1,5.9,3.9,5.7L3,4.8L2.9,4.9c-0.4,0.4-1,0.4-1.4,0s-0.4-1,0-1.4l1.6-1.6
			c0.4-0.4,1-0.4,1.4,0s0.4,1,0,1.4L4.4,3.4l0.9,0.9c0.4,0.4,0.4,1,0,1.4C5.1,5.9,4.9,6,4.6,6z M19.8,6c-0.3,0-0.5-0.1-0.7-0.3
			c-0.4-0.4-0.4-1,0-1.4L20,3.4l-0.1-0.1c-0.4-0.4-0.4-1,0-1.4s1-0.4,1.4,0l1.6,1.6c0.4,0.4,0.4,1,0,1.4s-1,0.4-1.4,0l-0.1-0.1
			l-0.9,0.9C20.3,5.9,20.1,6,19.8,6z"/>
	</g>
</g>
</svg>
