<?xml version="1.0" encoding="utf-8"?>
<!-- Generator: Adobe Illustrator 15.1.0, SVG Export Plug-In . SVG Version: 6.00 Build 0)  -->
<!DOCTYPE svg PUBLIC "-//W3C//DTD SVG 1.1//EN" "http://www.w3.org/Graphics/SVG/1.1/DTD/svg11.dtd">
<svg version="1.1" id="Layer_1" xmlns="http://www.w3.org/2000/svg" xmlns:xlink="http://www.w3.org/1999/xlink" x="0px" y="0px"
	 width="74px" height="38px" viewBox="61 30.2 74 38" style="enable-background:new 61 30.2 74 38;" xml:space="preserve">
<g id="Layer_2" style="display:none;">
	<rect x="0" y="-4.5" style="display:inline;fill:#282424;" width="230" height="109"/>
</g>
<g id="Layer_1_1_">
	<path style="fill:#FFFFFF;" d="M121.6,50.3v-1.1h-3.1l-0.1-2.5h-0.9v2.5h-1.3v1.1h1.3v8c0,2.2,1,3.3,3.1,3.3h1v-1.1h-1
		c-1.2,0-1.8-0.8-1.8-2.4v-7.8H121.6z"/>
	<path style="fill:#FFFFFF;" d="M61,45.3c1.6-0.5,3.1-0.7,4.7-0.7c4,0,6,1.5,6,4.6c0,1.8-0.7,3.1-2.2,3.8c1.5,0.7,2.2,1.9,2.2,3.8
		c0,3.2-2,4.8-6,4.8c-1.6,0-3.1-0.2-4.7-0.7v-1.9c1.6,0.5,3.1,0.8,4.7,0.8c2.6,0,3.9-1,3.9-3.1c0-2-1-2.9-3-2.9h-3.8v-1.8h3.8
		c2,0,3-1,3-2.9c0-1.9-1.3-2.8-3.9-2.8c-1.6,0-3.1,0.3-4.7,0.8V45.3z"/>
	<path style="fill:#FFFFFF;" d="M74,49.7c1.6-0.3,3.3-0.5,5.1-0.5c4,0,5.9,1.9,5.9,5.9c0,4.3-2,6.5-6,6.5c-1,0-2.3-0.2-3.8-0.6v5H74
		V49.7z M75.2,59.7c1.5,0.4,2.7,0.6,3.8,0.6c3.2,0,4.8-1.8,4.8-5.3c0-3.2-1.6-4.7-4.8-4.7c-1.1,0-2.4,0.1-3.8,0.3L75.2,59.7
		L75.2,59.7z"/>
	<path style="fill:#FFFFFF;" d="M86.5,55.4c0-4.1,2-6.2,5.9-6.2s5.9,2.1,5.9,6.2c0,4.1-2,6.2-5.9,6.2C88.5,61.5,86.5,59.5,86.5,55.4
		 M92.4,60.5c3.1,0,4.6-1.7,4.6-5.2c0-3.4-1.5-5.1-4.6-5.1s-4.6,1.7-4.6,5.1C87.7,58.8,89.3,60.5,92.4,60.5"/>
	<rect x="100.3" y="49.2" style="fill:#FFFFFF;" width="1.2" height="12.3"/>
	<path style="fill:#FFFFFF;" d="M104.5,61.5V49.2h0.9l0.2,1.6c2-1.1,3.8-1.6,5.3-1.6c2.7,0,4,1.3,4,3.9v8.4h-1.2v-8.5
		c0-1.8-1-2.7-3.1-2.7c-1.5,0-3.1,0.5-4.8,1.6v9.7H104.5z"/>
	<path style="fill:#FFFFFF;" d="M123.9,44.7h10v1.8h-8.2l-0.4,4.7c0.9-0.2,1.9-0.3,3-0.3c4.5,0,6.7,1.7,6.7,5.2
		c0,3.7-2.2,5.5-6.5,5.5c-1.8,0-3.5-0.2-5-0.7v-1.9c1.6,0.5,3.2,0.8,5,0.8c2.9,0,4.3-1.3,4.3-3.8c0-2.3-1.5-3.4-4.5-3.4
		c-1.8,0-3.5,0.2-5,0.6L123.9,44.7z"/>
	<rect x="120" y="67.3" style="fill:#FFFFFF;" width="0.5" height="0.5"/>
	<path style="fill:#FFFFFF;" d="M124,67.7c-0.3,0.1-0.7,0.1-1.1,0.1c-1.5,0-2.3-0.7-2.3-2.2c0-1.3,0.8-2,2.3-2c0.4,0,0.8,0,1.1,0.1
		v0.4c-0.3-0.1-0.7-0.1-1-0.1c-1.3,0-1.9,0.6-1.9,1.7c0,1.2,0.6,1.8,1.9,1.8c0.3,0,0.7,0,1-0.1V67.7z"/>
	<path style="fill:#FFFFFF;" d="M124.3,65.7c0-1.4,0.7-2.1,2-2.1s2,0.7,2,2.1c0,1.4-0.7,2.1-2,2.1C125,67.8,124.3,67.1,124.3,65.7
		 M126.3,67.5c1,0,1.6-0.6,1.6-1.8c0-1.1-0.5-1.7-1.6-1.7c-1,0-1.6,0.6-1.6,1.7C124.8,66.9,125.3,67.5,126.3,67.5"/>
	<path style="fill:#FFFFFF;" d="M128.9,67.8v-4.2h0.3l0,0.5c0.6-0.4,1.1-0.5,1.6-0.5c0.5,0,0.8,0.2,1,0.6c0.5-0.4,1-0.6,1.5-0.6
		c0.9,0,1.3,0.5,1.3,1.4v2.8h-0.4V65c0-0.7-0.3-1-1-1c-0.5,0-0.9,0.2-1.3,0.5v3.3h-0.4V65c0-0.6-0.3-0.9-0.9-0.9
		c-0.5,0-1,0.2-1.4,0.5v3.3H128.9L128.9,67.8z"/>
	<path style="fill:#FFFFFF;" d="M110.6,33.2H98.9c-0.8,0-1.5,0.7-1.5,1.5v8.1c0,0.9,0.7,1.5,1.5,1.5h2.9l-0.7,3.1l4.3-3.1h5.2
		c0.8,0,1.5-0.7,1.5-1.5v-4.9v-0.5v-2.7C112.1,33.9,111.4,33.2,110.6,33.2 M111.4,37.9v4.9c0,0.4-0.4,0.8-0.8,0.8h-5.4l-2.9,2.1
		l0.5-2.1h-3.9c-0.4,0-0.8-0.4-0.8-0.8v-8.1c0-0.4,0.4-0.8,0.8-0.8h11.7c0.4,0,0.8,0.4,0.8,0.8v2.7V37.9L111.4,37.9z"/>
	<path style="fill:#FFFFFF;" d="M106.9,32.2v2.6v0.5v4.9c0,0.8,0.7,1.5,1.5,1.5h5.2l4.3,3.1l-0.7-3.1h2.9c0.9,0,1.5-0.7,1.5-1.5
		v-8.1c0-0.8-0.7-1.5-1.5-1.5h-11.7C107.6,30.7,106.9,31.4,106.9,32.2 M107.6,34.9v-2.6c0-0.4,0.4-0.8,0.8-0.8h11.7
		c0.4,0,0.8,0.4,0.8,0.8v8.1c0,0.4-0.4,0.8-0.8,0.8h-3.9l0.5,2.1l-2.9-2.1h-5.4c-0.4,0-0.8-0.4-0.8-0.8v-4.9V34.9L107.6,34.9z"/>
</g>
</svg>
