<?xml version="1.0" encoding="UTF-8" standalone="no"?>
<svg width="30px" height="22px" viewBox="0 0 30 22" version="1.1" xmlns="http://www.w3.org/2000/svg" xmlns:xlink="http://www.w3.org/1999/xlink" xmlns:sketch="http://www.bohemiancoding.com/sketch/ns">
    <!-- Generator: Sketch 3.3.2 (12043) - http://www.bohemiancoding.com/sketch -->
    <title>Fill 2</title>
    <desc>Created with Sketch.</desc>
    <defs></defs>
    <g id="Page-1" stroke="none" stroke-width="1" fill="none" fill-rule="evenodd" sketch:type="MSPage">
        <g id="Components---Footer" sketch:type="MSArtboardGroup" transform="translate(-1120.000000, -484.000000)" fill="#A39E93">
            <g id="Footer-:-Labeled" sketch:type="MSLayerGroup" transform="translate(296.000000, 429.000000)">
                <g id="labeled-footer" transform="translate(0.000000, 0.000000)" sketch:type="MSShapeGroup">
                    <path d="M853.733,66.158 C853.733,66.949 853.767,67.742 853.725,68.531 C853.661,69.736 853.568,70.94 853.442,72.14 C853.364,72.879 853.143,73.592 852.809,74.26 C852.275,75.329 851.382,75.944 850.234,76.178 C849.7,76.287 849.149,76.326 848.603,76.355 C847.291,76.427 845.978,76.478 844.665,76.53 C844.059,76.554 843.453,76.565 842.846,76.572 C841.367,76.592 839.887,76.613 838.408,76.619 C837.569,76.623 836.729,76.601 835.89,76.585 C835.003,76.569 834.115,76.557 833.228,76.526 C831.862,76.478 830.495,76.437 829.131,76.348 C828.486,76.307 827.835,76.212 827.209,76.054 C825.963,75.74 825.131,74.945 824.707,73.721 C824.437,72.942 824.269,72.145 824.212,71.323 C824.147,70.371 824.048,69.419 824.024,68.465 C823.99,67.098 823.991,65.728 824.014,64.36 C824.03,63.42 824.098,62.481 824.16,61.542 C824.232,60.456 824.373,59.383 824.794,58.364 C825.351,57.014 826.386,56.276 827.798,56.077 C828.602,55.963 829.42,55.932 830.233,55.891 C831.342,55.836 832.452,55.8 833.561,55.77 C834.638,55.741 835.714,55.722 836.791,55.712 C838.106,55.7 839.421,55.693 840.736,55.7 C841.827,55.706 842.919,55.727 844.01,55.758 C845.27,55.794 846.53,55.837 847.788,55.9 C848.548,55.938 849.313,55.974 850.061,56.096 C851.564,56.34 852.574,57.204 853.07,58.656 C853.326,59.404 853.483,60.169 853.538,60.956 C853.605,61.919 853.69,62.88 853.729,63.844 C853.761,64.614 853.736,65.387 853.736,66.158 L853.733,66.158 L853.733,66.158 Z M843.835,65.851 C841.147,64.449 838.489,63.062 835.815,61.667 L835.815,70.009 C838.491,68.622 841.149,67.244 843.835,65.851 L843.835,65.851 Z" id="Fill-2"></path>
                </g>
            </g>
        </g>
    </g>
</svg>